<svg xmlns="http://www.w3.org/2000/svg" width="262" height="262" viewBox="0 0 262 262" version="1.1">
	<path d="M 114.656 51.581 C 100.501 55.009, 85.588 65.902, 78.238 78.185 C 71.859 88.846, 70.522 94.090, 70.510 108.500 C 70.502 119.454, 70.859 122.538, 72.779 128.093 C 76.934 140.112, 91.530 163.404, 112.510 191.500 C 125.289 208.612, 128.960 212.467, 131.656 211.605 C 135.431 210.398, 161.456 175.282, 175.595 152.317 C 187.326 133.262, 190.183 125.542, 190.780 111.273 C 191.201 101.213, 190.980 99.180, 188.656 91.726 C 182.456 71.842, 166.626 56.820, 146.356 51.586 C 138.770 49.628, 122.735 49.625, 114.656 51.581 M 120.335 61.359 C 109.378 64.152, 96.903 72.700, 98.336 76.434 C 99.247 78.807, 101.802 78.325, 106.020 74.984 C 108.115 73.325, 112.454 70.751, 115.664 69.263 C 120.536 67.005, 122.905 66.553, 130 66.529 C 140.134 66.494, 146.562 68.555, 154.086 74.250 C 159.734 78.525, 162.500 78.790, 162.500 75.057 C 162.500 71.982, 152.351 64.794, 144.737 62.475 C 137.505 60.273, 126.559 59.773, 120.335 61.359 M 121.324 74.375 C 113.103 77.072, 106.494 82.517, 107.682 85.615 C 108.482 87.698, 110.444 87.309, 115.593 84.043 C 125.363 77.847, 135.659 77.861, 145.473 84.085 C 150.720 87.413, 152.518 87.698, 153.421 85.345 C 154.299 83.057, 150.717 79.498, 144.451 76.432 C 138.072 73.311, 127.448 72.366, 121.324 74.375 M 124.450 87.352 C 114.669 91.788, 111.982 105.182, 119.389 112.589 C 129.620 122.820, 146 115.798, 146 101.180 C 146 96.895, 143.132 91.893, 138.864 88.732 C 135.497 86.238, 128.404 85.559, 124.450 87.352 M 129 98.055 L 129 104.110 133.750 103.805 C 137.170 103.585, 138.500 103.080, 138.500 102 C 138.500 101.039, 137.333 100.387, 135.250 100.187 C 132.187 99.891, 132 99.647, 132 95.937 C 132 93.104, 131.579 92, 130.500 92 C 129.332 92, 129 93.339, 129 98.055 M 103.655 123.829 C 102.222 125.412, 102 128.570, 102 147.376 C 102 168.914, 102.020 169.114, 104.361 171.298 C 105.660 172.509, 107.049 174.540, 107.448 175.811 C 107.847 177.082, 109.258 178.616, 110.583 179.220 C 112.541 180.112, 113.367 179.978, 114.996 178.504 C 116.098 177.506, 117 175.860, 117 174.845 C 117 173.143, 118.045 173, 130.500 173 C 142.955 173, 144 173.143, 144 174.845 C 144 175.860, 144.902 177.506, 146.004 178.504 C 147.633 179.978, 148.459 180.112, 150.417 179.220 C 151.742 178.616, 153.153 177.082, 153.552 175.811 C 153.951 174.540, 155.340 172.509, 156.639 171.298 C 158.981 169.113, 159 168.923, 159 147.203 C 159 127.263, 158.837 125.162, 157.171 123.655 C 155.572 122.208, 152.201 122, 130.326 122 C 107.361 122, 105.174 122.150, 103.655 123.829 M 109.200 129.200 C 107.549 130.851, 107.552 149.605, 109.203 150.625 C 110.559 151.464, 150.737 151.280, 152.113 150.430 C 153.493 149.577, 153.213 130.613, 151.800 129.200 C 150.104 127.504, 110.896 127.504, 109.200 129.200 M 95.250 131.718 C 94.429 132.013, 94 134.339, 94 138.500 C 94 142.667, 94.427 144.982, 95.250 145.269 C 98.082 146.257, 99 144.727, 99 139.015 C 99 133.250, 97.751 130.819, 95.250 131.718 M 163.122 132.278 C 162.505 132.895, 162 135.962, 162 139.093 C 162 143.375, 162.394 144.937, 163.590 145.396 C 166.323 146.445, 167 145.085, 167 138.548 C 167 132.091, 165.589 129.811, 163.122 132.278 M 109.200 158.200 C 105.739 161.661, 110.569 168.371, 114.865 166.072 C 119.414 163.638, 118.170 157, 113.165 157 C 111.644 157, 109.860 157.540, 109.200 158.200 M 145.200 158.200 C 143.235 160.165, 143.748 164.795, 146.067 166.036 C 147.675 166.896, 148.675 166.788, 150.567 165.548 C 154.687 162.848, 153.273 157, 148.500 157 C 147.345 157, 145.860 157.540, 145.200 158.200" stroke="none" fill="#000000" fill-rule="evenodd"/>
</svg>